STARTFONT 2.1
COMMENT
COMMENT Converted from OpenType font "Q:\font stuff\winfont\Walkway Condensed.ttf" by "otf2bdf 3.0".
COMMENT
FONT -FreeType-Walkway Condensed-Medium-R-Normal--32-320-72-72-P-98-ISO10646-1
SIZE 32 72 72
FONTBOUNDINGBOX 26 34 -3 -6
STARTPROPERTIES 19
FOUNDRY "FreeType"
FAMILY_NAME "Walkway Condensed"
WEIGHT_NAME "Medium"
SLANT "R"
SETWIDTH_NAME "Normal"
ADD_STYLE_NAME ""
PIXEL_SIZE 32
POINT_SIZE 320
RESOLUTION_X 72
RESOLUTION_Y 72
SPACING "P"
AVERAGE_WIDTH 98
CHARSET_REGISTRY "ISO10646"
CHARSET_ENCODING "1"
FONT_ASCENT 27
FONT_DESCENT 5
COPYRIGHT "©G.M."
_OTF_FONTFILE "Q:\font stuff\winfont\Walkway Condensed.ttf"
_OTF_PSNAME "WalkwayCondensed"
ENDPROPERTIES
CHARS 223
STARTCHAR 0020
ENCODING 32
SWIDTH 250 0
DWIDTH 8 0
BBX 0 0 0 0
BITMAP
ENDCHAR
STARTCHAR 0021
ENCODING 33
SWIDTH 125 0
DWIDTH 4 0
BBX 1 20 1 1
BITMAP
80
80
80
80
80
80
80
80
80
80
80
80
80
80
00
00
00
00
00
80
ENDCHAR
STARTCHAR 0022
ENCODING 34
SWIDTH 218 0
DWIDTH 7 0
BBX 4 3 1 18
BITMAP
90
90
90
ENDCHAR
STARTCHAR 0023
ENCODING 35
SWIDTH 375 0
DWIDTH 12 0
BBX 6 9 3 6
BITMAP
48
48
FC
48
48
88
F0
90
80
ENDCHAR
STARTCHAR 0024
ENCODING 36
SWIDTH 437 0
DWIDTH 14 0
BBX 13 26 0 -2
BITMAP
0480
0480
0FC0
34A0
4490
4488
4488
4488
4480
4480
2480
1480
0E80
05C0
04B0
0488
0488
0488
8488
4488
4488
4488
2490
1CA0
07C0
0480
ENDCHAR
STARTCHAR 0025
ENCODING 37
SWIDTH 531 0
DWIDTH 17 0
BBX 15 22 1 0
BITMAP
3808
4410
8410
8420
8420
8440
8440
8480
8480
8500
7910
026C
0244
0484
0484
0882
0882
1082
1084
2044
2044
0038
ENDCHAR
STARTCHAR 0026
ENCODING 38
SWIDTH 437 0
DWIDTH 14 0
BBX 11 23 1 -1
BITMAP
0E00
1100
2080
2080
2080
2080
2100
2100
1200
0C00
0800
1000
2000
4000
8020
8020
8020
8020
8060
80A0
40A0
2120
1E20
ENDCHAR
STARTCHAR 0027
ENCODING 39
SWIDTH 125 0
DWIDTH 4 0
BBX 1 3 1 18
BITMAP
80
80
80
ENDCHAR
STARTCHAR 0028
ENCODING 40
SWIDTH 156 0
DWIDTH 5 0
BBX 3 26 1 -4
BITMAP
20
20
40
40
40
40
40
80
80
80
80
80
80
80
80
80
80
80
80
40
40
40
40
40
20
20
ENDCHAR
STARTCHAR 0029
ENCODING 41
SWIDTH 156 0
DWIDTH 5 0
BBX 3 26 1 -4
BITMAP
80
80
80
80
40
40
40
40
40
40
20
20
20
20
20
20
40
40
40
40
40
40
80
80
80
80
ENDCHAR
STARTCHAR 002A
ENCODING 42
SWIDTH 250 0
DWIDTH 8 0
BBX 5 7 1 15
BITMAP
20
A8
70
30
E8
20
20
ENDCHAR
STARTCHAR 002B
ENCODING 43
SWIDTH 406 0
DWIDTH 13 0
BBX 7 12 3 2
BITMAP
10
10
10
10
10
10
FE
10
10
10
10
10
ENDCHAR
STARTCHAR 002C
ENCODING 44
SWIDTH 187 0
DWIDTH 6 0
BBX 2 6 2 -3
BITMAP
40
80
80
80
80
80
ENDCHAR
STARTCHAR 002D
ENCODING 45
SWIDTH 250 0
DWIDTH 8 0
BBX 6 1 1 8
BITMAP
FC
ENDCHAR
STARTCHAR 002E
ENCODING 46
SWIDTH 156 0
DWIDTH 5 0
BBX 1 2 2 0
BITMAP
80
80
ENDCHAR
STARTCHAR 002F
ENCODING 47
SWIDTH 250 0
DWIDTH 8 0
BBX 8 22 0 1
BITMAP
01
02
02
02
04
04
04
08
08
08
10
10
10
20
20
20
40
40
40
80
80
80
ENDCHAR
STARTCHAR 0030
ENCODING 48
SWIDTH 406 0
DWIDTH 13 0
BBX 11 22 1 0
BITMAP
1F00
6080
4040
8040
8020
8020
8020
8020
8020
8020
8020
8020
8020
8020
8020
8020
8020
8040
4040
2080
1100
0E00
ENDCHAR
STARTCHAR 0031
ENCODING 49
SWIDTH 281 0
DWIDTH 9 0
BBX 4 21 3 0
BITMAP
10
30
50
50
90
10
10
10
10
10
10
10
10
10
10
10
10
10
10
10
10
ENDCHAR
STARTCHAR 0032
ENCODING 50
SWIDTH 406 0
DWIDTH 13 0
BBX 11 21 1 1
BITMAP
1F00
2080
4040
4040
8040
8040
0040
0040
0080
0100
0200
0400
0800
1000
2000
4000
4000
8000
8000
8000
FFE0
ENDCHAR
STARTCHAR 0033
ENCODING 51
SWIDTH 406 0
DWIDTH 13 0
BBX 12 22 0 0
BITMAP
0F80
1060
2020
4010
4010
4010
4010
0020
0020
00C0
0140
0020
0010
0010
0010
8010
4010
4010
4020
2020
18C0
0700
ENDCHAR
STARTCHAR 0034
ENCODING 52
SWIDTH 406 0
DWIDTH 13 0
BBX 11 20 1 0
BITMAP
0800
1100
1100
1100
2100
2100
2100
4100
4100
4100
8100
8100
8100
FFE0
0100
0100
0100
0100
0100
0100
ENDCHAR
STARTCHAR 0035
ENCODING 53
SWIDTH 406 0
DWIDTH 13 0
BBX 12 22 0 -1
BITMAP
3FE0
4000
4000
4000
4000
4000
4000
4F80
5040
6020
4020
0010
0010
0010
0010
8010
4010
4020
4020
2040
1880
0700
ENDCHAR
STARTCHAR 0036
ENCODING 54
SWIDTH 406 0
DWIDTH 13 0
BBX 11 22 1 -1
BITMAP
0F00
3080
4040
8040
8040
8020
8020
8000
9F00
A080
C040
8040
8040
8020
8020
8020
8040
8040
4040
4080
3B00
0400
ENDCHAR
STARTCHAR 0037
ENCODING 55
SWIDTH 406 0
DWIDTH 13 0
BBX 11 21 1 0
BITMAP
FFE0
0040
0040
0040
0080
0080
0080
0100
0100
0100
0200
0200
0200
0400
0400
0400
0800
0800
0800
1000
1000
ENDCHAR
STARTCHAR 0038
ENCODING 56
SWIDTH 406 0
DWIDTH 13 0
BBX 13 22 0 0
BITMAP
0F80
1060
2020
4010
4010
4010
4010
2020
1040
0F80
1860
2010
4010
4010
8010
8008
8010
4010
4010
2020
18C0
0700
ENDCHAR
STARTCHAR 0039
ENCODING 57
SWIDTH 406 0
DWIDTH 13 0
BBX 11 22 1 0
BITMAP
1F00
2080
4040
8040
8040
8020
8020
8020
8020
8020
4060
20A0
1F20
0020
0020
8020
8020
8040
4040
4080
2100
1E00
ENDCHAR
STARTCHAR 003A
ENCODING 58
SWIDTH 156 0
DWIDTH 5 0
BBX 1 15 2 -1
BITMAP
80
80
80
00
00
00
00
00
00
00
00
00
00
80
80
ENDCHAR
STARTCHAR 003B
ENCODING 59
SWIDTH 187 0
DWIDTH 6 0
BBX 2 17 2 -2
BITMAP
80
00
00
00
00
00
00
00
00
00
00
40
80
80
80
80
80
ENDCHAR
STARTCHAR 003C
ENCODING 60
SWIDTH 375 0
DWIDTH 12 0
BBX 10 12 1 1
BITMAP
0040
0080
0300
0C00
3000
4000
8000
6000
1000
0C00
0300
0080
ENDCHAR
STARTCHAR 003D
ENCODING 61
SWIDTH 437 0
DWIDTH 14 0
BBX 12 5 1 6
BITMAP
FFF0
0000
0000
0000
FFF0
ENDCHAR
STARTCHAR 003E
ENCODING 62
SWIDTH 375 0
DWIDTH 12 0
BBX 10 12 1 1
BITMAP
8000
4000
3000
0C00
0200
0180
0040
0180
0200
0C00
3000
4000
ENDCHAR
STARTCHAR 003F
ENCODING 63
SWIDTH 375 0
DWIDTH 12 0
BBX 11 22 0 1
BITMAP
1F00
20C0
4040
4040
4020
8020
0040
0040
0080
0080
0100
0200
0200
0400
0400
0400
0000
0000
0000
0000
0400
0400
ENDCHAR
STARTCHAR 0040
ENCODING 64
SWIDTH 593 0
DWIDTH 19 0
BBX 16 23 1 0
BITMAP
03F0
0C08
1004
2002
41C1
4629
4819
8809
9009
9009
9009
9011
9011
9011
9012
9032
4854
4789
2002
1002
0804
0618
01E0
ENDCHAR
STARTCHAR 0041
ENCODING 65
SWIDTH 437 0
DWIDTH 14 0
BBX 14 22 0 0
BITMAP
0100
0100
0300
0280
0480
0480
0480
0840
0840
0840
1020
1020
1020
2010
3FF0
2010
4010
4008
4008
8008
8004
8004
ENDCHAR
STARTCHAR 0042
ENCODING 66
SWIDTH 437 0
DWIDTH 14 0
BBX 13 22 1 0
BITMAP
FF80
8060
8020
8010
8010
8010
8010
8010
8020
8020
FFC0
8060
8010
8010
8010
8008
8008
8010
8010
8010
8020
FFC0
ENDCHAR
STARTCHAR 0043
ENCODING 67
SWIDTH 500 0
DWIDTH 16 0
BBX 14 23 1 -1
BITMAP
07E0
0810
3008
2004
4000
4000
8000
8000
8000
8000
8000
8000
8000
8000
8000
8000
8000
4000
4004
2008
1010
0E60
0180
ENDCHAR
STARTCHAR 0044
ENCODING 68
SWIDTH 468 0
DWIDTH 15 0
BBX 13 22 1 0
BITMAP
FF00
80C0
8020
8010
8010
8008
8008
8008
8008
8008
8008
8008
8008
8008
8008
8008
8008
8010
8010
8020
8040
FF80
ENDCHAR
STARTCHAR 0045
ENCODING 69
SWIDTH 406 0
DWIDTH 13 0
BBX 11 22 1 0
BITMAP
FFE0
8000
8000
8000
8000
8000
8000
8000
8000
8000
FFC0
8000
8000
8000
8000
8000
8000
8000
8000
8000
8000
FFE0
ENDCHAR
STARTCHAR 0046
ENCODING 70
SWIDTH 343 0
DWIDTH 11 0
BBX 10 22 1 0
BITMAP
FFC0
8000
8000
8000
8000
8000
8000
8000
8000
8000
FF80
8000
8000
8000
8000
8000
8000
8000
8000
8000
8000
8000
ENDCHAR
STARTCHAR 0047
ENCODING 71
SWIDTH 531 0
DWIDTH 17 0
BBX 16 23 0 -1
BITMAP
03E0
0C18
1004
2004
2002
4002
4000
4000
8000
8000
8000
8000
807F
8001
8001
4001
4002
4002
2002
1004
0808
0730
00C0
ENDCHAR
STARTCHAR 0048
ENCODING 72
SWIDTH 468 0
DWIDTH 15 0
BBX 13 22 1 0
BITMAP
8008
8008
8008
8008
8008
8008
8008
8008
8008
8008
FFF8
8008
8008
8008
8008
8008
8008
8008
8008
8008
8008
8008
ENDCHAR
STARTCHAR 0049
ENCODING 73
SWIDTH 93 0
DWIDTH 3 0
BBX 1 22 1 0
BITMAP
80
80
80
80
80
80
80
80
80
80
80
80
80
80
80
80
80
80
80
80
80
80
ENDCHAR
STARTCHAR 004A
ENCODING 74
SWIDTH 343 0
DWIDTH 11 0
BBX 10 23 0 -1
BITMAP
0040
0040
0040
0040
0040
0040
0040
0040
0040
0040
0040
0040
0040
0040
0040
0040
0080
8080
8080
8080
4100
3700
0800
ENDCHAR
STARTCHAR 004B
ENCODING 75
SWIDTH 468 0
DWIDTH 15 0
BBX 13 22 1 0
BITMAP
8008
8010
8020
8040
8080
8100
8200
8200
8400
8800
9800
A400
C200
8100
8100
8080
8040
8040
8020
8010
8018
8000
ENDCHAR
STARTCHAR 004C
ENCODING 76
SWIDTH 343 0
DWIDTH 11 0
BBX 10 22 1 0
BITMAP
8000
8000
8000
8000
8000
8000
8000
8000
8000
8000
8000
8000
8000
8000
8000
8000
8000
8000
8000
8000
8000
FFC0
ENDCHAR
STARTCHAR 004D
ENCODING 77
SWIDTH 562 0
DWIDTH 18 0
BBX 16 22 1 0
BITMAP
8001
8003
C003
C003
C005
A005
A005
A009
9009
9009
9011
8811
8811
8421
8421
8421
8241
8241
8241
8181
8181
8080
ENDCHAR
STARTCHAR 004E
ENCODING 78
SWIDTH 468 0
DWIDTH 15 0
BBX 13 22 1 0
BITMAP
8008
C008
C008
A008
A008
9008
9008
8808
8808
8408
8208
8208
8108
8108
8088
8088
8048
8048
8028
8028
8018
8008
ENDCHAR
STARTCHAR 004F
ENCODING 79
SWIDTH 531 0
DWIDTH 17 0
BBX 16 23 0 -1
BITMAP
01C0
0630
180C
2004
2002
4002
4001
4001
8001
8001
8001
8001
8001
8001
4001
4001
4002
4002
2002
1004
0808
0770
0080
ENDCHAR
STARTCHAR 0050
ENCODING 80
SWIDTH 437 0
DWIDTH 14 0
BBX 12 22 1 0
BITMAP
FF80
8060
8020
8010
8010
8010
8010
8010
8010
8020
8020
FFC0
8000
8000
8000
8000
8000
8000
8000
8000
8000
8000
ENDCHAR
STARTCHAR 0051
ENCODING 81
SWIDTH 531 0
DWIDTH 17 0
BBX 16 24 0 -3
BITMAP
01C0
0630
180C
2004
2002
4002
4001
4001
8001
8001
8001
8001
8001
8001
4001
4301
4C82
5042
3042
1044
0848
0670
01A0
001E
ENDCHAR
STARTCHAR 0052
ENCODING 82
SWIDTH 437 0
DWIDTH 14 0
BBX 12 22 1 0
BITMAP
FF80
8060
8010
8010
8010
8010
8010
8010
8010
8020
8020
FFC0
8060
8020
8010
8010
8010
8010
8010
8010
8010
8000
ENDCHAR
STARTCHAR 0053
ENCODING 83
SWIDTH 437 0
DWIDTH 14 0
BBX 13 23 0 -1
BITMAP
0FC0
1020
2010
4010
4008
4008
4000
4000
2000
1000
0E00
01C0
0030
0010
0008
0008
8008
4008
4008
4008
2010
1EE0
0100
ENDCHAR
STARTCHAR 0054
ENCODING 84
SWIDTH 375 0
DWIDTH 12 0
BBX 12 21 0 0
BITMAP
FFF0
0400
0400
0400
0400
0400
0400
0400
0400
0400
0400
0400
0400
0400
0400
0400
0400
0400
0400
0400
0400
ENDCHAR
STARTCHAR 0055
ENCODING 85
SWIDTH 468 0
DWIDTH 15 0
BBX 13 23 1 -1
BITMAP
8008
8008
8008
8008
8008
8008
8008
8008
8008
8008
8008
8008
8008
8008
8008
8008
8010
8010
8010
4010
2020
1DC0
0200
ENDCHAR
STARTCHAR 0056
ENCODING 86
SWIDTH 437 0
DWIDTH 14 0
BBX 14 22 0 0
BITMAP
8004
8008
8008
4008
4008
4010
2010
2010
2020
1020
1020
1020
1040
0840
0840
0880
0480
0480
0500
0300
0300
0100
ENDCHAR
STARTCHAR 0057
ENCODING 87
SWIDTH 687 0
DWIDTH 22 0
BBX 21 21 0 0
BITMAP
808000
808008
808008
404010
404010
404010
202010
202020
202020
103020
103040
105040
105040
084840
088880
088880
048480
048500
050500
050500
030300
ENDCHAR
STARTCHAR 0058
ENCODING 88
SWIDTH 437 0
DWIDTH 14 0
BBX 13 22 0 0
BITMAP
8008
4008
4010
2020
2020
1040
0840
0880
0500
0500
0200
0300
0500
0480
0880
1040
1040
2020
2010
4010
4008
8000
ENDCHAR
STARTCHAR 0059
ENCODING 89
SWIDTH 437 0
DWIDTH 14 0
BBX 14 21 0 0
BITMAP
8004
8008
4008
2010
2020
1020
1040
0840
0480
0500
0300
0200
0200
0200
0200
0200
0200
0200
0200
0200
0200
ENDCHAR
STARTCHAR 005A
ENCODING 90
SWIDTH 437 0
DWIDTH 14 0
BBX 12 22 1 0
BITMAP
FFF0
0010
0020
0020
0040
0040
0080
0100
0100
0200
0200
0400
0800
0800
1000
1000
2000
2000
4000
8000
8000
FFF0
ENDCHAR
STARTCHAR 005B
ENCODING 91
SWIDTH 156 0
DWIDTH 5 0
BBX 2 29 2 -5
BITMAP
C0
80
80
80
80
80
80
80
80
80
80
80
80
80
80
80
80
80
80
80
80
80
80
80
80
80
80
80
40
ENDCHAR
STARTCHAR 005C
ENCODING 92
SWIDTH 250 0
DWIDTH 8 0
BBX 8 22 0 1
BITMAP
80
80
80
40
40
40
20
20
20
10
10
10
08
08
08
04
04
04
02
02
02
01
ENDCHAR
STARTCHAR 005D
ENCODING 93
SWIDTH 156 0
DWIDTH 5 0
BBX 2 29 1 -5
BITMAP
C0
40
40
40
40
40
40
40
40
40
40
40
40
40
40
40
40
40
40
40
40
40
40
40
40
40
40
40
80
ENDCHAR
STARTCHAR 005E
ENCODING 94
SWIDTH 218 0
DWIDTH 7 0
BBX 4 5 1 16
BITMAP
20
60
60
90
80
ENDCHAR
STARTCHAR 005F
ENCODING 95
SWIDTH 375 0
DWIDTH 12 0
BBX 12 2 0 -4
BITMAP
FFF0
FFF0
ENDCHAR
STARTCHAR 0060
ENCODING 96
SWIDTH 125 0
DWIDTH 4 0
BBX 3 4 1 17
BITMAP
80
80
40
20
ENDCHAR
STARTCHAR 0061
ENCODING 97
SWIDTH 406 0
DWIDTH 13 0
BBX 11 17 0 -1
BITMAP
0F00
30A0
2060
4060
4020
8020
8020
8020
8020
8020
8020
8020
4060
4060
20A0
1100
0E00
ENDCHAR
STARTCHAR 0062
ENCODING 98
SWIDTH 406 0
DWIDTH 13 0
BBX 11 23 1 -1
BITMAP
8000
8000
8000
8000
8000
8000
8F00
B080
C040
C040
8040
8020
8020
8020
8020
8020
8020
8040
8040
C040
A080
9100
0E00
ENDCHAR
STARTCHAR 0063
ENCODING 99
SWIDTH 375 0
DWIDTH 12 0
BBX 11 17 0 -1
BITMAP
0F00
10C0
2040
4020
4020
4000
8000
8000
8000
8000
8000
4020
4020
4040
2040
1980
0600
ENDCHAR
STARTCHAR 0064
ENCODING 100
SWIDTH 406 0
DWIDTH 13 0
BBX 11 22 0 0
BITMAP
0020
0020
0020
0020
0020
0F20
30A0
2060
4060
4020
8020
8020
8020
8020
8020
8020
8020
4060
4060
20A0
1100
0E00
ENDCHAR
STARTCHAR 0065
ENCODING 101
SWIDTH 375 0
DWIDTH 12 0
BBX 11 17 0 -1
BITMAP
0F00
3080
4040
4020
4020
8020
8020
8020
FFC0
8000
8000
8000
4020
4040
2040
1980
0600
ENDCHAR
STARTCHAR 0066
ENCODING 102
SWIDTH 187 0
DWIDTH 6 0
BBX 5 21 1 0
BITMAP
18
20
40
40
40
40
40
F0
40
40
40
40
40
40
40
40
40
40
40
40
40
ENDCHAR
STARTCHAR 0067
ENCODING 103
SWIDTH 375 0
DWIDTH 12 0
BBX 11 22 0 -6
BITMAP
0F20
30A0
2060
4060
4060
8020
8020
8020
8020
8020
8020
4060
4060
2060
10A0
0F20
0020
4020
4020
2040
3080
0F00
ENDCHAR
STARTCHAR 0068
ENCODING 104
SWIDTH 375 0
DWIDTH 12 0
BBX 9 22 1 0
BITMAP
8000
8000
8000
8000
8000
8000
9E00
A100
C080
8080
8080
8080
8080
8080
8080
8080
8080
8080
8080
8080
8080
8000
ENDCHAR
STARTCHAR 0069
ENCODING 105
SWIDTH 93 0
DWIDTH 3 0
BBX 1 22 1 0
BITMAP
80
80
80
00
00
00
80
80
80
80
80
80
80
80
80
80
80
80
80
80
80
80
ENDCHAR
STARTCHAR 006A
ENCODING 106
SWIDTH 93 0
DWIDTH 3 0
BBX 5 28 -3 -6
BITMAP
08
08
08
00
00
00
08
08
08
08
08
08
08
08
08
08
08
08
08
08
08
08
08
08
10
10
20
C0
ENDCHAR
STARTCHAR 006B
ENCODING 107
SWIDTH 375 0
DWIDTH 12 0
BBX 10 22 1 0
BITMAP
8000
8000
8000
8000
8000
8000
8040
8080
8100
8200
8400
8800
9000
A800
C800
8400
8200
8200
8100
8080
8080
8040
ENDCHAR
STARTCHAR 006C
ENCODING 108
SWIDTH 93 0
DWIDTH 3 0
BBX 1 22 1 0
BITMAP
80
80
80
80
80
80
80
80
80
80
80
80
80
80
80
80
80
80
80
80
80
80
ENDCHAR
STARTCHAR 006D
ENCODING 109
SWIDTH 562 0
DWIDTH 18 0
BBX 16 16 1 0
BITMAP
9E3C
A242
C181
8081
8081
8101
8101
8101
8101
8101
8101
8101
8101
8101
8101
8000
ENDCHAR
STARTCHAR 006E
ENCODING 110
SWIDTH 375 0
DWIDTH 12 0
BBX 9 16 1 0
BITMAP
9E00
A100
C080
8080
8080
8080
8080
8080
8080
8080
8080
8080
8080
8080
8080
8000
ENDCHAR
STARTCHAR 006F
ENCODING 111
SWIDTH 375 0
DWIDTH 12 0
BBX 12 17 0 -1
BITMAP
0F00
10C0
2040
4020
4020
8020
8020
8010
8010
8010
8020
4020
4020
4040
2040
1880
0700
ENDCHAR
STARTCHAR 0070
ENCODING 112
SWIDTH 406 0
DWIDTH 13 0
BBX 11 21 1 -6
BITMAP
8F00
B080
C040
C040
8040
8020
8020
8020
8020
8020
8020
8040
8040
C040
A080
9100
8E00
8000
8000
8000
8000
ENDCHAR
STARTCHAR 0071
ENCODING 113
SWIDTH 406 0
DWIDTH 13 0
BBX 11 20 0 -6
BITMAP
0F00
30A0
4060
4060
4020
8020
8020
8020
8020
8020
8020
4020
4060
4060
2060
11A0
0E20
0020
0020
0020
ENDCHAR
STARTCHAR 0072
ENCODING 114
SWIDTH 218 0
DWIDTH 7 0
BBX 6 16 1 0
BITMAP
8C
B0
C0
C0
80
80
80
80
80
80
80
80
80
80
80
80
ENDCHAR
STARTCHAR 0073
ENCODING 115
SWIDTH 343 0
DWIDTH 11 0
BBX 9 17 1 0
BITMAP
3E00
4100
8100
8080
8080
8000
4000
3000
0E00
0100
0080
0080
8080
8080
C100
2300
1C00
ENDCHAR
STARTCHAR 0074
ENCODING 116
SWIDTH 187 0
DWIDTH 6 0
BBX 5 18 0 1
BITMAP
20
20
20
20
F8
20
20
20
20
20
20
20
20
20
20
20
20
20
ENDCHAR
STARTCHAR 0075
ENCODING 117
SWIDTH 375 0
DWIDTH 12 0
BBX 9 17 1 -1
BITMAP
8000
8080
8080
8080
8080
8080
8080
8080
8080
8080
8080
8080
8080
8080
4180
3200
0C00
ENDCHAR
STARTCHAR 0076
ENCODING 118
SWIDTH 343 0
DWIDTH 11 0
BBX 10 16 0 0
BITMAP
8000
8040
8040
4080
4080
4080
2080
2100
2100
1100
1200
1200
0A00
0A00
0C00
0400
ENDCHAR
STARTCHAR 0077
ENCODING 119
SWIDTH 531 0
DWIDTH 17 0
BBX 16 16 1 0
BITMAP
0201
8202
8202
8202
8102
4104
4104
4284
2288
2288
2248
2448
1450
1450
1830
0800
ENDCHAR
STARTCHAR 0078
ENCODING 120
SWIDTH 312 0
DWIDTH 10 0
BBX 10 16 0 0
BITMAP
0040
4080
4080
2100
1100
1200
0C00
0400
0400
0C00
1200
2100
2100
4080
4080
8040
ENDCHAR
STARTCHAR 0079
ENCODING 121
SWIDTH 375 0
DWIDTH 12 0
BBX 9 22 1 -6
BITMAP
8000
8080
8080
8080
8080
8080
8080
8080
8080
8080
8080
8080
8080
8080
4180
3280
0C80
0080
8080
8080
4100
3E00
ENDCHAR
STARTCHAR 007A
ENCODING 122
SWIDTH 343 0
DWIDTH 11 0
BBX 9 16 1 0
BITMAP
FF80
0100
0100
0200
0200
0400
0800
0800
1000
1000
2000
4000
4000
8000
8000
FF80
ENDCHAR
STARTCHAR 007B
ENCODING 123
SWIDTH 250 0
DWIDTH 8 0
BBX 3 28 2 -5
BITMAP
20
40
40
40
40
40
40
40
40
40
40
40
40
80
80
40
40
40
40
40
40
40
40
40
40
40
40
20
ENDCHAR
STARTCHAR 007C
ENCODING 124
SWIDTH 156 0
DWIDTH 5 0
BBX 1 24 2 -2
BITMAP
80
80
80
80
80
80
80
80
80
80
80
80
80
80
80
80
80
80
80
80
80
80
80
80
ENDCHAR
STARTCHAR 007D
ENCODING 125
SWIDTH 250 0
DWIDTH 8 0
BBX 2 28 3 -5
BITMAP
80
80
80
80
80
80
80
80
80
80
80
80
80
40
40
80
80
80
80
80
80
80
80
80
80
80
80
80
ENDCHAR
STARTCHAR 007E
ENCODING 126
SWIDTH 375 0
DWIDTH 12 0
BBX 10 4 1 11
BITMAP
0040
7840
8480
8380
ENDCHAR
STARTCHAR 00A0
ENCODING 160
SWIDTH 375 0
DWIDTH 12 0
BBX 0 0 0 0
BITMAP
ENDCHAR
STARTCHAR 00A1
ENCODING 161
SWIDTH 125 0
DWIDTH 4 0
BBX 1 20 1 -3
BITMAP
80
00
00
00
00
00
80
80
80
80
80
80
80
80
80
80
80
80
80
80
ENDCHAR
STARTCHAR 00A2
ENCODING 162
SWIDTH 375 0
DWIDTH 12 0
BBX 11 18 0 -1
BITMAP
0080
0F80
1140
2140
4220
4220
4200
8400
8400
8400
8800
8800
4820
5020
5040
3040
1980
0600
ENDCHAR
STARTCHAR 00A4
ENCODING 164
SWIDTH 406 0
DWIDTH 13 0
BBX 9 11 2 7
BITMAP
8080
9900
6600
4200
4100
8100
8100
4200
4200
7D00
8100
ENDCHAR
STARTCHAR 00A5
ENCODING 165
SWIDTH 437 0
DWIDTH 14 0
BBX 14 21 0 0
BITMAP
8000
4004
4008
2010
2010
1020
0840
0840
0480
0480
0300
0200
0200
3FF0
0200
0200
0200
3FF0
0200
0200
0200
ENDCHAR
STARTCHAR 00A6
ENCODING 166
SWIDTH 156 0
DWIDTH 5 0
BBX 1 23 2 0
BITMAP
80
80
80
80
80
80
80
80
80
80
00
00
00
80
80
80
80
80
80
80
80
80
80
ENDCHAR
STARTCHAR 00A7
ENCODING 167
SWIDTH 406 0
DWIDTH 13 0
BBX 9 25 2 -4
BITMAP
1C00
6300
8100
8080
8080
8000
4000
2000
3E00
4100
8080
8080
8080
8080
4100
2100
1E00
0300
0100
8100
8080
8100
C100
2200
1C00
ENDCHAR
STARTCHAR 00A8
ENCODING 168
SWIDTH 156 0
DWIDTH 5 0
BBX 4 2 0 17
BITMAP
10
90
ENDCHAR
STARTCHAR 00A9
ENCODING 169
SWIDTH 406 0
DWIDTH 13 0
BBX 12 15 0 7
BITMAP
0200
1D80
2040
2720
48A0
5090
5010
9010
5010
5090
48A0
2720
2040
1880
0700
ENDCHAR
STARTCHAR 00AA
ENCODING 170
SWIDTH 250 0
DWIDTH 8 0
BBX 7 10 0 11
BITMAP
1C
62
42
42
82
82
42
42
42
3C
ENDCHAR
STARTCHAR 00AB
ENCODING 171
SWIDTH 281 0
DWIDTH 9 0
BBX 7 8 1 5
BITMAP
02
14
28
50
90
48
24
12
ENDCHAR
STARTCHAR 00AC
ENCODING 172
SWIDTH 406 0
DWIDTH 13 0
BBX 11 5 1 4
BITMAP
FFE0
0020
0020
0020
0020
ENDCHAR
STARTCHAR 00AD
ENCODING 173
SWIDTH 406 0
DWIDTH 13 0
BBX 11 1 1 7
BITMAP
FFE0
ENDCHAR
STARTCHAR 00AE
ENCODING 174
SWIDTH 375 0
DWIDTH 12 0
BBX 12 14 0 8
BITMAP
1F80
2040
4E20
4920
88A0
88A0
8F10
8920
88A0
48A0
48A0
2040
1880
0700
ENDCHAR
STARTCHAR 00AF
ENCODING 175
SWIDTH 218 0
DWIDTH 7 0
BBX 5 1 1 19
BITMAP
F8
ENDCHAR
STARTCHAR 00B0
ENCODING 176
SWIDTH 281 0
DWIDTH 9 0
BBX 7 9 1 12
BITMAP
38
44
82
82
82
82
82
44
38
ENDCHAR
STARTCHAR 00B1
ENCODING 177
SWIDTH 437 0
DWIDTH 14 0
BBX 9 13 3 0
BITMAP
1000
1000
1000
1000
1000
7F00
1000
1000
1000
1000
0000
0000
FF80
ENDCHAR
STARTCHAR 00B2
ENCODING 178
SWIDTH 281 0
DWIDTH 9 0
BBX 8 13 0 9
BITMAP
3E
42
42
42
02
04
08
10
20
40
40
80
7F
ENDCHAR
STARTCHAR 00B3
ENCODING 179
SWIDTH 312 0
DWIDTH 10 0
BBX 8 13 1 9
BITMAP
3C
42
82
82
02
0C
02
02
81
81
82
42
3C
ENDCHAR
STARTCHAR 00B4
ENCODING 180
SWIDTH 156 0
DWIDTH 5 0
BBX 3 4 1 17
BITMAP
20
40
80
80
ENDCHAR
STARTCHAR 00B5
ENCODING 181
SWIDTH 375 0
DWIDTH 12 0
BBX 9 21 1 -6
BITMAP
8000
8080
8080
8080
8080
8080
8080
8080
8080
8080
8080
8080
8080
C080
C080
B300
8E00
8200
8180
8000
8000
ENDCHAR
STARTCHAR 00B6
ENCODING 182
SWIDTH 343 0
DWIDTH 11 0
BBX 9 26 1 -5
BITMAP
0F80
1C80
3C80
7C80
7C80
FC80
FC80
FC80
FC80
7C80
7C80
7C80
3C80
1C80
0480
0480
0480
0480
0480
0480
0480
0480
0480
0480
0480
0080
ENDCHAR
STARTCHAR 00B7
ENCODING 183
SWIDTH 156 0
DWIDTH 5 0
BBX 1 3 2 8
BITMAP
80
80
80
ENDCHAR
STARTCHAR 00B8
ENCODING 184
SWIDTH 187 0
DWIDTH 6 0
BBX 3 6 2 -5
BITMAP
80
C0
20
20
20
C0
ENDCHAR
STARTCHAR 00B9
ENCODING 185
SWIDTH 187 0
DWIDTH 6 0
BBX 3 13 2 8
BITMAP
20
60
A0
20
20
20
20
20
20
20
20
20
20
ENDCHAR
STARTCHAR 00BA
ENCODING 186
SWIDTH 281 0
DWIDTH 9 0
BBX 7 10 1 11
BITMAP
38
44
82
82
02
02
82
82
44
38
ENDCHAR
STARTCHAR 00BB
ENCODING 187
SWIDTH 281 0
DWIDTH 9 0
BBX 6 7 2 6
BITMAP
A0
50
28
24
48
90
20
ENDCHAR
STARTCHAR 00BC
ENCODING 188
SWIDTH 562 0
DWIDTH 18 0
BBX 15 21 2 2
BITMAP
2040
6040
A080
2080
2080
2100
2100
2100
2208
2248
2248
2488
0488
0908
0908
0A08
11FE
1008
1008
2008
0008
ENDCHAR
STARTCHAR 00BD
ENCODING 189
SWIDTH 562 0
DWIDTH 18 0
BBX 15 22 2 1
BITMAP
0040
2040
6080
A080
2080
2100
2100
2100
2200
2238
22C4
2484
2504
2404
0808
0810
0820
1040
1080
1080
2100
20FE
ENDCHAR
STARTCHAR 00BE
ENCODING 190
SWIDTH 625 0
DWIDTH 20 0
BBX 18 21 1 2
BITMAP
3C0800
420800
811000
011000
021000
042000
022000
022000
814100
814900
814900
429100
3C9100
00A100
012100
012100
013FC0
020100
020100
020100
000100
ENDCHAR
STARTCHAR 00BF
ENCODING 191
SWIDTH 375 0
DWIDTH 12 0
BBX 11 22 0 -3
BITMAP
0400
0400
0000
0000
0000
0400
0400
0400
0400
0800
0800
1000
2000
4000
4000
4000
8020
8040
4040
4040
2080
1F00
ENDCHAR
STARTCHAR 00C0
ENCODING 192
SWIDTH 468 0
DWIDTH 15 0
BBX 13 26 1 1
BITMAP
0400
0200
0200
0100
0000
0200
0200
0500
0500
0500
0880
0880
0880
1080
1040
1040
2040
2020
2020
3FE0
4010
4010
4010
8008
8008
8008
ENDCHAR
STARTCHAR 00C1
ENCODING 193
SWIDTH 468 0
DWIDTH 15 0
BBX 13 26 1 1
BITMAP
0100
0200
0400
0400
0000
0200
0200
0500
0500
0500
0880
0880
0880
1080
1040
1040
2040
2020
2020
3FE0
4010
4010
4010
8008
8008
8008
ENDCHAR
STARTCHAR 00C2
ENCODING 194
SWIDTH 468 0
DWIDTH 15 0
BBX 13 26 1 1
BITMAP
0200
0500
0500
0080
0000
0200
0200
0500
0500
0500
0880
0880
0880
1080
1040
1040
2040
2020
2020
3FE0
4010
4010
4010
8008
8008
8008
ENDCHAR
STARTCHAR 00C3
ENCODING 195
SWIDTH 468 0
DWIDTH 15 0
BBX 13 25 1 0
BITMAP
0440
1A40
0180
0000
0200
0200
0500
0500
0500
0880
0880
0880
1080
1040
1040
2040
2020
2020
3FE0
4010
4010
4010
8008
8008
8008
ENDCHAR
STARTCHAR 00C4
ENCODING 196
SWIDTH 468 0
DWIDTH 15 0
BBX 13 24 1 1
BITMAP
0500
0400
0000
0200
0200
0500
0500
0500
0880
0880
0880
1080
1040
1040
2040
2020
2020
3FE0
4010
4010
4010
8008
8008
8008
ENDCHAR
STARTCHAR 00C5
ENCODING 197
SWIDTH 468 0
DWIDTH 15 0
BBX 13 27 1 0
BITMAP
0300
0500
0900
0500
0200
0000
0200
0200
0500
0500
0500
0880
0880
0880
1080
1040
1040
2040
2020
2020
3FE0
4010
4010
4010
8008
8008
8008
ENDCHAR
STARTCHAR 00C6
ENCODING 198
SWIDTH 750 0
DWIDTH 24 0
BBX 23 22 0 0
BITMAP
0007FE
000C00
001400
001400
002400
004400
004400
008400
008400
010400
01FFFC
020400
040400
040400
080400
100400
100400
200400
400400
400400
800400
8007FE
ENDCHAR
STARTCHAR 00C7
ENCODING 199
SWIDTH 500 0
DWIDTH 16 0
BBX 14 28 1 -6
BITMAP
07E0
0810
3008
2004
4000
4000
8000
8000
8000
8000
8000
8000
8000
8000
8000
8000
8000
4000
4004
2008
1010
0E60
0180
0100
00C0
0040
0080
0300
ENDCHAR
STARTCHAR 00C8
ENCODING 200
SWIDTH 406 0
DWIDTH 13 0
BBX 11 27 1 1
BITMAP
0800
0800
0400
0200
0000
FFE0
8000
8000
8000
8000
8000
8000
8000
8000
8000
FFC0
8000
8000
8000
8000
8000
8000
8000
8000
8000
8000
FFE0
ENDCHAR
STARTCHAR 00C9
ENCODING 201
SWIDTH 406 0
DWIDTH 13 0
BBX 11 27 1 1
BITMAP
0200
0400
0800
0800
0000
FFE0
8000
8000
8000
8000
8000
8000
8000
8000
8000
FFC0
8000
8000
8000
8000
8000
8000
8000
8000
8000
8000
FFE0
ENDCHAR
STARTCHAR 00CA
ENCODING 202
SWIDTH 406 0
DWIDTH 13 0
BBX 11 27 1 1
BITMAP
0400
0A00
1200
1100
0000
FFE0
8000
8000
8000
8000
8000
8000
8000
8000
8000
FFC0
8000
8000
8000
8000
8000
8000
8000
8000
8000
8000
FFE0
ENDCHAR
STARTCHAR 00CB
ENCODING 203
SWIDTH 406 0
DWIDTH 13 0
BBX 11 26 1 0
BITMAP
0200
1200
0000
0000
FFE0
8000
8000
8000
8000
8000
8000
8000
8000
8000
FFC0
8000
8000
8000
8000
8000
8000
8000
8000
8000
8000
FFE0
ENDCHAR
STARTCHAR 00CC
ENCODING 204
SWIDTH 93 0
DWIDTH 3 0
BBX 3 27 0 1
BITMAP
80
40
40
20
00
40
40
40
40
40
40
40
40
40
40
40
40
40
40
40
40
40
40
40
40
40
40
ENDCHAR
STARTCHAR 00CD
ENCODING 205
SWIDTH 93 0
DWIDTH 3 0
BBX 3 27 0 1
BITMAP
20
40
80
80
00
40
40
40
40
40
40
40
40
40
40
40
40
40
40
40
40
40
40
40
40
40
40
ENDCHAR
STARTCHAR 00CE
ENCODING 206
SWIDTH 93 0
DWIDTH 3 0
BBX 5 27 -1 1
BITMAP
60
50
90
88
00
20
20
20
20
20
20
20
20
20
20
20
20
20
20
20
20
20
20
20
20
20
20
ENDCHAR
STARTCHAR 00CF
ENCODING 207
SWIDTH 93 0
DWIDTH 3 0
BBX 1 22 1 5
BITMAP
80
80
80
80
80
80
80
80
80
80
80
80
80
80
80
80
80
80
80
80
80
80
ENDCHAR
STARTCHAR 00D0
ENCODING 208
SWIDTH 468 0
DWIDTH 15 0
BBX 13 22 1 0
BITMAP
FF00
80C0
8020
8010
8010
8008
8008
8008
8008
8008
8008
F008
8008
8008
8008
8008
8008
8010
8010
8020
8040
FF80
ENDCHAR
STARTCHAR 00D1
ENCODING 209
SWIDTH 468 0
DWIDTH 15 0
BBX 13 25 1 1
BITMAP
1640
0180
0000
8008
C008
C008
A008
A008
9008
9008
8808
8808
8408
8208
8208
8108
8108
8088
8088
8048
8048
8028
8028
8018
8008
ENDCHAR
STARTCHAR 00D2
ENCODING 210
SWIDTH 531 0
DWIDTH 17 0
BBX 16 28 0 0
BITMAP
0100
0080
0080
0040
0000
01C0
0630
180C
2004
2002
4002
4001
4001
8001
8001
8001
8001
8001
8001
4001
4001
4002
4002
2002
1004
0808
0770
0080
ENDCHAR
STARTCHAR 00D3
ENCODING 211
SWIDTH 531 0
DWIDTH 17 0
BBX 16 29 0 -1
BITMAP
0040
0040
0080
0100
0100
0000
01C0
0630
180C
2004
2002
4002
4001
4001
8001
8001
8001
8001
8001
8001
4001
4001
4002
4002
2002
1004
0808
0770
0080
ENDCHAR
STARTCHAR 00D4
ENCODING 212
SWIDTH 531 0
DWIDTH 17 0
BBX 16 29 0 -1
BITMAP
0080
0180
0140
0240
0220
0000
01C0
0630
180C
2004
2002
4002
4001
4001
8001
8001
8001
8001
8001
8001
4001
4001
4002
4002
2002
1004
0808
0770
0080
ENDCHAR
STARTCHAR 00D5
ENCODING 213
SWIDTH 531 0
DWIDTH 17 0
BBX 16 27 0 0
BITMAP
0310
04E0
0000
0000
01C0
0630
180C
2004
2002
4002
4001
4001
8001
8001
8001
8001
8001
8001
4001
4001
4002
4002
2002
1004
0808
0770
0080
ENDCHAR
STARTCHAR 00D6
ENCODING 214
SWIDTH 531 0
DWIDTH 17 0
BBX 16 23 0 4
BITMAP
01C0
0630
180C
2004
2002
4002
4001
4001
8001
8001
8001
8001
8001
8001
4001
4001
4002
4002
2002
1004
0808
0770
0080
ENDCHAR
STARTCHAR 00D7
ENCODING 215
SWIDTH 343 0
DWIDTH 11 0
BBX 7 8 2 4
BITMAP
82
44
28
10
30
28
44
82
ENDCHAR
STARTCHAR 00D8
ENCODING 216
SWIDTH 531 0
DWIDTH 17 0
BBX 16 24 0 -1
BITMAP
0008
01D0
0630
181C
2024
2022
4022
4041
4041
8041
8081
8081
8081
8101
8101
4101
4201
4202
4202
2402
1404
0C08
0770
0880
ENDCHAR
STARTCHAR 00D9
ENCODING 217
SWIDTH 468 0
DWIDTH 15 0
BBX 13 28 1 0
BITMAP
0400
0400
0200
0100
0000
8008
8008
8008
8008
8008
8008
8008
8008
8008
8008
8008
8008
8008
8008
8008
8008
8010
8010
8010
4010
2020
1DC0
0200
ENDCHAR
STARTCHAR 00DA
ENCODING 218
SWIDTH 468 0
DWIDTH 15 0
BBX 13 28 1 0
BITMAP
0100
0200
0400
0400
0000
8008
8008
8008
8008
8008
8008
8008
8008
8008
8008
8008
8008
8008
8008
8008
8008
8010
8010
8010
4010
2020
1DC0
0200
ENDCHAR
STARTCHAR 00DB
ENCODING 219
SWIDTH 468 0
DWIDTH 15 0
BBX 13 28 1 0
BITMAP
0600
0500
0900
0880
0000
8008
8008
8008
8008
8008
8008
8008
8008
8008
8008
8008
8008
8008
8008
8008
8008
8010
8010
8010
4010
2020
1DC0
0200
ENDCHAR
STARTCHAR 00DC
ENCODING 220
SWIDTH 468 0
DWIDTH 15 0
BBX 13 27 1 0
BITMAP
0100
0100
0000
0000
8008
8008
8008
8008
8008
8008
8008
8008
8008
8008
8008
8008
8008
8008
8008
8008
8010
8010
8010
4010
2020
1DC0
0200
ENDCHAR
STARTCHAR 00DD
ENCODING 221
SWIDTH 468 0
DWIDTH 15 0
BBX 14 27 0 1
BITMAP
0080
0100
0200
0200
0000
8000
4004
4008
2010
1010
1020
0820
0840
0480
0280
0100
0100
0100
0100
0100
0100
0100
0100
0100
0100
0100
0100
ENDCHAR
STARTCHAR 00DE
ENCODING 222
SWIDTH 312 0
DWIDTH 10 0
BBX 7 22 1 0
BITMAP
80
80
80
80
80
F8
84
82
82
82
82
82
82
82
82
84
F8
80
80
80
80
80
ENDCHAR
STARTCHAR 00DF
ENCODING 223
SWIDTH 343 0
DWIDTH 11 0
BBX 10 23 1 0
BITMAP
3E00
4100
8080
8080
8080
8080
8100
8100
8E00
8200
8100
8080
8080
8080
8040
8040
8040
8040
8080
8080
8080
8100
0E00
ENDCHAR
STARTCHAR 00E0
ENCODING 224
SWIDTH 375 0
DWIDTH 12 0
BBX 11 22 0 0
BITMAP
0800
0400
0400
0200
0000
0F00
30A0
2060
4060
4020
8020
8020
8020
8020
8020
8020
8020
4060
4060
20A0
1100
0E00
ENDCHAR
STARTCHAR 00E1
ENCODING 225
SWIDTH 375 0
DWIDTH 12 0
BBX 11 22 0 0
BITMAP
0200
0400
0400
0000
0000
0F00
10A0
2060
4020
4020
4020
8020
8020
8020
8020
4020
4020
4020
6060
2060
1980
0600
ENDCHAR
STARTCHAR 00E2
ENCODING 226
SWIDTH 375 0
DWIDTH 12 0
BBX 11 22 0 0
BITMAP
0600
0A00
0900
0000
0000
0F00
10A0
2060
4020
4020
4020
8020
8020
8020
8020
4020
4020
4020
6060
2060
1980
0600
ENDCHAR
STARTCHAR 00E3
ENCODING 227
SWIDTH 375 0
DWIDTH 12 0
BBX 11 21 0 0
BITMAP
1880
0680
0100
0000
0F00
10A0
2060
4020
4020
4020
8020
8020
8020
8020
4020
4020
4020
6060
2060
1980
0600
ENDCHAR
STARTCHAR 00E4
ENCODING 228
SWIDTH 375 0
DWIDTH 12 0
BBX 11 21 0 -1
BITMAP
0100
0900
0000
0000
0F00
10A0
2060
4020
4020
4020
8020
8020
8020
8020
4020
4020
4020
6060
2060
1980
0600
ENDCHAR
STARTCHAR 00E5
ENCODING 229
SWIDTH 375 0
DWIDTH 12 0
BBX 11 23 0 0
BITMAP
0600
0900
0900
0600
0000
0000
0F00
10A0
2060
4020
4020
4020
8020
8020
8020
8020
4020
4020
4020
6060
2060
1980
0600
ENDCHAR
STARTCHAR 00E6
ENCODING 230
SWIDTH 687 0
DWIDTH 22 0
BBX 21 17 0 -1
BITMAP
0F03C0
30A420
206810
407008
403008
802008
802008
802008
803FF0
802000
802000
802000
405008
407010
20A810
110660
0E0180
ENDCHAR
STARTCHAR 00E7
ENCODING 231
SWIDTH 375 0
DWIDTH 12 0
BBX 11 22 0 -6
BITMAP
0F00
10C0
2040
4020
4020
4000
8000
8000
8000
8000
8000
4020
4020
4040
2040
1980
0600
0200
0100
0080
0900
0600
ENDCHAR
STARTCHAR 00E8
ENCODING 232
SWIDTH 375 0
DWIDTH 12 0
BBX 11 22 0 0
BITMAP
0800
0400
0200
0000
0000
0F00
3080
4040
4020
4020
8020
8020
8020
FFC0
8000
8000
8000
4020
4040
2040
1980
0600
ENDCHAR
STARTCHAR 00E9
ENCODING 233
SWIDTH 375 0
DWIDTH 12 0
BBX 11 22 0 0
BITMAP
0200
0400
0400
0800
0000
0F00
3080
4040
4020
4020
8020
8020
8020
FFC0
8000
8000
8000
4020
4040
2040
1980
0600
ENDCHAR
STARTCHAR 00EA
ENCODING 234
SWIDTH 375 0
DWIDTH 12 0
BBX 11 22 0 0
BITMAP
0600
0A00
0900
0000
0000
0F00
3080
4040
4020
4020
8020
8020
8020
FFC0
8000
8000
8000
4020
4040
2040
1980
0600
ENDCHAR
STARTCHAR 00EB
ENCODING 235
SWIDTH 375 0
DWIDTH 12 0
BBX 11 21 0 -1
BITMAP
0800
0A00
0000
0000
0F00
3080
4040
4020
4020
8020
8020
8020
FFC0
8000
8000
8000
4020
4040
2040
1980
0600
ENDCHAR
STARTCHAR 00EC
ENCODING 236
SWIDTH 93 0
DWIDTH 3 0
BBX 3 21 0 1
BITMAP
80
40
40
20
00
40
40
40
40
40
40
40
40
40
40
40
40
40
40
40
40
ENDCHAR
STARTCHAR 00ED
ENCODING 237
SWIDTH 93 0
DWIDTH 3 0
BBX 3 21 0 1
BITMAP
20
40
80
80
00
40
40
40
40
40
40
40
40
40
40
40
40
40
40
40
40
ENDCHAR
STARTCHAR 00EE
ENCODING 238
SWIDTH 93 0
DWIDTH 3 0
BBX 5 22 -1 0
BITMAP
20
60
50
90
88
00
20
20
20
20
20
20
20
20
20
20
20
20
20
20
20
20
ENDCHAR
STARTCHAR 00EF
ENCODING 239
SWIDTH 93 0
DWIDTH 3 0
BBX 3 20 0 0
BITMAP
80
A0
00
00
40
40
40
40
40
40
40
40
40
40
40
40
40
40
40
40
ENDCHAR
STARTCHAR 00F0
ENCODING 240
SWIDTH 406 0
DWIDTH 13 0
BBX 11 22 0 0
BITMAP
0020
0020
0FE0
0020
0020
0F20
30A0
2060
4060
4020
8020
8020
8020
8020
8020
8020
8020
4060
4060
20A0
1100
0E00
ENDCHAR
STARTCHAR 00F1
ENCODING 241
SWIDTH 375 0
DWIDTH 12 0
BBX 9 20 1 1
BITMAP
3100
0D00
0200
0000
9E00
A100
C080
8080
8080
8080
8080
8080
8080
8080
8080
8080
8080
8080
8080
8000
ENDCHAR
STARTCHAR 00F2
ENCODING 242
SWIDTH 375 0
DWIDTH 12 0
BBX 12 22 0 0
BITMAP
0400
0400
0200
0100
0000
0F00
10C0
2040
4020
4020
8020
8020
8010
8010
8010
8020
4020
4020
4040
2040
1880
0700
ENDCHAR
STARTCHAR 00F3
ENCODING 243
SWIDTH 375 0
DWIDTH 12 0
BBX 12 22 0 0
BITMAP
0300
0200
0400
0000
0000
0F00
10C0
2040
4020
4020
8020
8020
8010
8010
8010
8020
4020
4020
4040
2040
1880
0700
ENDCHAR
STARTCHAR 00F4
ENCODING 244
SWIDTH 375 0
DWIDTH 12 0
BBX 12 22 0 0
BITMAP
0600
0A00
0900
0000
0000
0F00
10C0
2040
4020
4020
8020
8020
8010
8010
8010
8020
4020
4020
4040
2040
1880
0700
ENDCHAR
STARTCHAR 00F5
ENCODING 245
SWIDTH 375 0
DWIDTH 12 0
BBX 12 21 0 0
BITMAP
0C80
1280
0100
0000
0F00
10C0
2040
4020
4020
8020
8020
8010
8010
8010
8020
4020
4020
4040
2040
1880
0700
ENDCHAR
STARTCHAR 00F6
ENCODING 246
SWIDTH 375 0
DWIDTH 12 0
BBX 12 21 0 -1
BITMAP
0100
0900
0000
0000
0F00
10C0
2040
4020
4020
8020
8020
8010
8010
8010
8020
4020
4020
4040
2040
1880
0700
ENDCHAR
STARTCHAR 00F7
ENCODING 247
SWIDTH 406 0
DWIDTH 13 0
BBX 11 10 1 2
BITMAP
0400
0400
0400
0000
0000
FFE0
0000
0000
0400
0400
ENDCHAR
STARTCHAR 00F8
ENCODING 248
SWIDTH 375 0
DWIDTH 12 0
BBX 12 19 0 -2
BITMAP
0040
0080
0F80
1080
2140
4120
4120
8220
8220
8410
8410
8410
8820
4820
4820
5040
3040
1880
2700
ENDCHAR
STARTCHAR 00F9
ENCODING 249
SWIDTH 375 0
DWIDTH 12 0
BBX 9 21 1 1
BITMAP
0800
0400
0000
0000
8000
8080
8080
8080
8080
8080
8080
8080
8080
8080
8080
8080
8080
8080
4180
3200
0C00
ENDCHAR
STARTCHAR 00FA
ENCODING 250
SWIDTH 375 0
DWIDTH 12 0
BBX 9 22 1 0
BITMAP
0400
0800
0800
1000
0000
8000
8080
8080
8080
8080
8080
8080
8080
8080
8080
8080
8080
8080
8080
4180
3200
0C00
ENDCHAR
STARTCHAR 00FB
ENCODING 251
SWIDTH 375 0
DWIDTH 12 0
BBX 9 22 1 0
BITMAP
0C00
1400
1200
0000
0000
8000
8080
8080
8080
8080
8080
8080
8080
8080
8080
8080
8080
8080
8080
4180
3200
0C00
ENDCHAR
STARTCHAR 00FC
ENCODING 252
SWIDTH 375 0
DWIDTH 12 0
BBX 9 21 1 -1
BITMAP
1000
1400
0000
0000
8000
8080
8080
8080
8080
8080
8080
8080
8080
8080
8080
8080
8080
8080
4180
3200
0C00
ENDCHAR
STARTCHAR 00FD
ENCODING 253
SWIDTH 343 0
DWIDTH 11 0
BBX 9 27 1 -5
BITMAP
0400
0800
0800
1000
0000
8000
8080
8080
8080
8080
8080
8080
8080
8080
8080
8080
8080
8080
8080
4180
3280
0C80
0080
8080
8080
4100
3E00
ENDCHAR
STARTCHAR 00FE
ENCODING 254
SWIDTH 406 0
DWIDTH 13 0
BBX 11 27 1 -6
BITMAP
8000
8000
8000
8000
8000
8000
8F00
B080
C040
C040
8040
8020
8020
8020
8020
8020
8020
8040
8040
C040
A080
9100
8E00
8000
8000
8000
8000
ENDCHAR
STARTCHAR 00FF
ENCODING 255
SWIDTH 343 0
DWIDTH 11 0
BBX 9 26 1 -6
BITMAP
1000
1400
0000
0000
8000
8080
8080
8080
8080
8080
8080
8080
8080
8080
8080
8080
8080
8080
4180
3280
0C80
0080
8080
8080
4100
3E00
ENDCHAR
STARTCHAR 0131
ENCODING 305
SWIDTH 93 0
DWIDTH 3 0
BBX 1 16 1 0
BITMAP
80
80
80
80
80
80
80
80
80
80
80
80
80
80
80
80
ENDCHAR
STARTCHAR 0152
ENCODING 338
SWIDTH 718 0
DWIDTH 23 0
BBX 22 23 0 -1
BITMAP
03FFFC
0C2800
102400
202400
202200
402200
402100
402100
402100
802100
801FF8
802100
802100
802100
402100
402100
402100
402200
202200
102400
082800
063FFC
01C000
ENDCHAR
STARTCHAR 0153
ENCODING 339
SWIDTH 750 0
DWIDTH 24 0
BBX 21 17 1 -1
BITMAP
0F03C0
308430
404810
405008
803008
802008
802008
802008
803FF0
802000
802000
802000
805008
405010
208810
110660
0E0180
ENDCHAR
STARTCHAR 0160
ENCODING 352
SWIDTH 437 0
DWIDTH 14 0
BBX 13 28 0 0
BITMAP
0480
0500
0300
0000
0000
0FC0
1020
2010
4010
4008
4008
4000
4000
2000
1000
0E00
01C0
0030
0010
0008
0008
8008
4008
4008
4008
2010
1EE0
0100
ENDCHAR
STARTCHAR 0161
ENCODING 353
SWIDTH 343 0
DWIDTH 11 0
BBX 9 23 1 -1
BITMAP
2200
2400
1400
1800
0000
0000
3E00
4100
8100
8080
8080
8000
4000
3000
0E00
0100
0100
0080
8080
8080
C100
2300
1C00
ENDCHAR
STARTCHAR 0178
ENCODING 376
SWIDTH 468 0
DWIDTH 15 0
BBX 13 21 1 6
BITMAP
8008
8010
4010
2020
2040
1040
1080
0900
0500
0600
0200
0200
0200
0200
0200
0200
0200
0200
0200
0200
0200
ENDCHAR
STARTCHAR 0192
ENCODING 402
SWIDTH 406 0
DWIDTH 13 0
BBX 12 27 0 -5
BITMAP
0030
0040
0080
0100
0100
0100
0100
07C0
0200
0200
0200
0200
0200
0400
0400
0400
0400
0400
0400
0400
0800
0800
0800
1000
1000
6000
8000
ENDCHAR
STARTCHAR 02C6
ENCODING 710
SWIDTH 187 0
DWIDTH 6 0
BBX 4 3 1 18
BITMAP
60
A0
90
ENDCHAR
STARTCHAR 02C7
ENCODING 711
SWIDTH 93 0
DWIDTH 3 0
BBX 5 4 -1 17
BITMAP
88
90
50
60
ENDCHAR
STARTCHAR 02C9
ENCODING 713
SWIDTH 218 0
DWIDTH 7 0
BBX 5 1 1 19
BITMAP
F8
ENDCHAR
STARTCHAR 02DA
ENCODING 730
SWIDTH 93 0
DWIDTH 3 0
BBX 4 5 -1 18
BITMAP
60
90
90
90
60
ENDCHAR
STARTCHAR 02DC
ENCODING 732
SWIDTH 250 0
DWIDTH 8 0
BBX 6 3 1 18
BITMAP
64
94
08
ENDCHAR
STARTCHAR 03BC
ENCODING 956
SWIDTH 406 0
DWIDTH 13 0
BBX 0 0 0 0
BITMAP
ENDCHAR
STARTCHAR 2010
ENCODING 8208
SWIDTH 250 0
DWIDTH 8 0
BBX 6 1 1 8
BITMAP
FC
ENDCHAR
STARTCHAR 2013
ENCODING 8211
SWIDTH 343 0
DWIDTH 11 0
BBX 11 1 0 8
BITMAP
FFE0
ENDCHAR
STARTCHAR 2014
ENCODING 8212
SWIDTH 625 0
DWIDTH 20 0
BBX 20 1 0 8
BITMAP
FFFFF0
ENDCHAR
STARTCHAR 2018
ENCODING 8216
SWIDTH 125 0
DWIDTH 4 0
BBX 2 6 1 15
BITMAP
40
40
80
80
80
80
ENDCHAR
STARTCHAR 2019
ENCODING 8217
SWIDTH 125 0
DWIDTH 4 0
BBX 2 6 1 15
BITMAP
40
40
80
80
80
80
ENDCHAR
STARTCHAR 201A
ENCODING 8218
SWIDTH 218 0
DWIDTH 7 0
BBX 2 6 2 -3
BITMAP
40
80
80
80
80
80
ENDCHAR
STARTCHAR 201C
ENCODING 8220
SWIDTH 187 0
DWIDTH 6 0
BBX 4 6 1 15
BITMAP
40
50
90
90
A0
80
ENDCHAR
STARTCHAR 201D
ENCODING 8221
SWIDTH 187 0
DWIDTH 6 0
BBX 4 6 1 15
BITMAP
40
50
90
90
A0
80
ENDCHAR
STARTCHAR 201E
ENCODING 8222
SWIDTH 250 0
DWIDTH 8 0
BBX 4 6 2 -3
BITMAP
50
90
90
A0
A0
80
ENDCHAR
STARTCHAR 2020
ENCODING 8224
SWIDTH 250 0
DWIDTH 8 0
BBX 6 22 1 -2
BITMAP
20
20
20
20
FC
20
20
20
20
20
20
20
20
20
20
20
20
20
20
20
20
20
ENDCHAR
STARTCHAR 2021
ENCODING 8225
SWIDTH 250 0
DWIDTH 8 0
BBX 6 20 1 -1
BITMAP
20
20
20
FC
20
20
20
20
20
20
20
20
20
20
20
20
20
FC
20
20
ENDCHAR
STARTCHAR 2022
ENCODING 8226
SWIDTH 218 0
DWIDTH 7 0
BBX 3 5 1 8
BITMAP
E0
E0
E0
E0
E0
ENDCHAR
STARTCHAR 2026
ENCODING 8230
SWIDTH 437 0
DWIDTH 14 0
BBX 5 3 7 -1
BITMAP
80
88
88
ENDCHAR
STARTCHAR 2030
ENCODING 8240
SWIDTH 718 0
DWIDTH 23 0
BBX 22 23 0 -1
BITMAP
000400
380800
440800
421000
421000
822000
822000
824000
824000
428000
448000
3D1830
012448
024284
024284
044284
044304
084304
084304
104284
104284
002448
001830
ENDCHAR
STARTCHAR 2039
ENCODING 8249
SWIDTH 218 0
DWIDTH 7 0
BBX 4 7 1 6
BITMAP
10
20
40
80
40
20
10
ENDCHAR
STARTCHAR 203A
ENCODING 8250
SWIDTH 218 0
DWIDTH 7 0
BBX 3 6 2 6
BITMAP
80
40
20
20
40
80
ENDCHAR
STARTCHAR 20AC
ENCODING 8364
SWIDTH 406 0
DWIDTH 13 0
BBX 11 22 1 0
BITMAP
0FC0
1020
2000
2000
4000
4000
4000
4000
FF80
4000
4000
4000
FF00
4000
4000
4000
4000
2000
2000
1020
08C0
0700
ENDCHAR
STARTCHAR 2122
ENCODING 8482
SWIDTH 562 0
DWIDTH 18 0
BBX 16 11 1 11
BITMAP
FF01
1103
1305
1285
1285
1249
1249
1249
1231
1231
0011
ENDCHAR
STARTCHAR 2212
ENCODING 8722
SWIDTH 406 0
DWIDTH 13 0
BBX 11 1 1 7
BITMAP
FFE0
ENDCHAR
STARTCHAR 2219
ENCODING 8729
SWIDTH 156 0
DWIDTH 5 0
BBX 1 3 2 8
BITMAP
80
80
80
ENDCHAR
ENDFONT
